<?xml version="1.0" encoding="UTF-8" standalone="no"?>
<svg
   xmlns:dc="http://purl.org/dc/elements/1.1/"
   xmlns:cc="http://creativecommons.org/ns#"
   xmlns:rdf="http://www.w3.org/1999/02/22-rdf-syntax-ns#"
   xmlns:svg="http://www.w3.org/2000/svg"
   xmlns="http://www.w3.org/2000/svg"
   xmlns:sodipodi="http://sodipodi.sourceforge.net/DTD/sodipodi-0.dtd"
   xmlns:inkscape="http://www.inkscape.org/namespaces/inkscape"
   version="1.1"
   x="0px"
   y="0px"
   viewBox="0 0 90 112.5"
   style="enable-background:new 0 0 90 90;"
   xml:space="preserve"
   id="svg22"
   sodipodi:docname="calculator.svg"
   inkscape:version="0.92.5 (2060ec1f9f, 2020-04-08)"><metadata
     id="metadata28"><rdf:RDF><cc:Work
         rdf:about=""><dc:format>image/svg+xml</dc:format><dc:type
           rdf:resource="http://purl.org/dc/dcmitype/StillImage" /></cc:Work></rdf:RDF></metadata><defs
     id="defs26" /><sodipodi:namedview
     pagecolor="#ffffff"
     bordercolor="#666666"
     borderopacity="1"
     objecttolerance="10"
     gridtolerance="10"
     guidetolerance="10"
     inkscape:pageopacity="0"
     inkscape:pageshadow="2"
     inkscape:window-width="1920"
     inkscape:window-height="1016"
     id="namedview24"
     showgrid="false"
     inkscape:zoom="4.1955556"
     inkscape:cx="9.8014714"
     inkscape:cy="74.547123"
     inkscape:window-x="0"
     inkscape:window-y="27"
     inkscape:window-maximized="1"
     inkscape:current-layer="svg22" /><path
     d="m 17.483637,100.71711 h 56.718098 c 5.779956,0 10.481166,-4.701886 10.481166,-10.481841 V 18.303624 c 0,-5.779279 -4.70121,-10.4811664 -10.481166,-10.4811664 H 17.483637 c -5.779956,0 -10.4811661,4.7018894 -10.4811661,10.4811664 v 71.931645 c 0,5.779955 4.7012101,10.481841 10.4811661,10.481841 z M 9.7779336,18.303624 c 0,-4.249251 3.4571314,-7.705704 7.7057034,-7.705704 h 56.718098 c 4.248572,0 7.705703,3.456455 7.705703,7.705704 v 71.931645 c 0,4.24925 -3.457131,7.706381 -7.705703,7.706381 H 17.483637 c -4.248572,0 -7.7057034,-3.457131 -7.7057034,-7.706381 z"
     id="path2"
     inkscape:connector-curvature="0"
     style="stroke-width:1.38773131" /><path
     d="m 19.432424,53.759211 h 52.820524 c 0.767047,0 1.387732,-0.621363 1.387732,-1.387732 V 20.90562 c 0,-0.766369 -0.620685,-1.387731 -1.387732,-1.387731 H 19.432424 c -0.767047,0 -1.387732,0.621362 -1.387732,1.387731 v 31.465859 c 0,0.766369 0.620685,1.387732 1.387732,1.387732 z m 1.387731,-31.46586 H 70.865217 V 50.983748 H 20.820155 Z"
     id="path4"
     inkscape:connector-curvature="0"
     style="stroke-width:1.38773131" /><path
     d="M 51.050745,58.776186 H 40.634627 c -0.767046,0 -1.387731,0.621362 -1.387731,1.387731 v 10.414761 c 0,0.76637 0.620685,1.387732 1.387731,1.387732 h 10.416116 c 0.767047,0 1.387732,-0.621362 1.387732,-1.387732 V 60.163917 c 1e-6,-0.766369 -0.620684,-1.387731 -1.38773,-1.387731 z m -1.387732,10.41476 h -7.640654 v -7.639299 h 7.640653 z"
     id="path6"
     inkscape:connector-curvature="0"
     style="stroke-width:1.38773131" /><path
     d="m 19.432424,71.966408 h 10.414761 c 0.767046,0 1.387731,-0.621362 1.387731,-1.387731 V 60.163916 c 0,-0.766369 -0.620685,-1.387732 -1.387731,-1.387732 H 19.432424 c -0.767047,0 -1.387732,0.621363 -1.387732,1.387732 v 10.414761 c 0,0.766371 0.620685,1.387731 1.387732,1.387731 z m 1.387731,-10.41476 h 7.639299 v 7.639299 h -7.639299 z"
     id="path8"
     inkscape:connector-curvature="0"
     style="stroke-width:1.38773131" /><path
     d="M 72.252948,58.776186 H 61.838187 c -0.767046,0 -1.387731,0.621362 -1.387731,1.387731 v 10.414761 c 0,0.76637 0.620685,1.387732 1.387731,1.387732 h 10.414761 c 0.767047,0 1.387732,-0.621362 1.387732,-1.387732 V 60.163917 c 0,-0.766369 -0.620685,-1.387731 -1.387732,-1.387731 z m -1.387731,10.41476 h -7.639299 v -7.639299 h 7.639299 z"
     id="path10"
     inkscape:connector-curvature="0"
     style="stroke-width:1.38773131" /><path
     d="M 51.050745,76.816693 H 40.634627 c -0.767046,0 -1.387731,0.621363 -1.387731,1.387732 v 10.414761 c 0,0.766369 0.620685,1.387731 1.387731,1.387731 h 10.416116 c 0.767047,0 1.387732,-0.621362 1.387732,-1.387731 V 78.204425 c 1e-6,-0.766369 -0.620684,-1.387732 -1.38773,-1.387732 z m -1.387732,10.41476 h -7.640654 v -7.639298 h 7.640653 z"
     id="path12"
     inkscape:connector-curvature="0"
     style="stroke-width:1.38773131" /><path
     d="m 19.432424,90.006916 h 10.414761 c 0.767046,0 1.387731,-0.621362 1.387731,-1.387731 V 78.204423 c 0,-0.766369 -0.620685,-1.387731 -1.387731,-1.387731 H 19.432424 c -0.767047,0 -1.387732,0.621362 -1.387732,1.387731 v 10.414762 c 0,0.76637 0.620685,1.387731 1.387732,1.387731 z m 1.387731,-10.41476 h 7.639299 v 7.639299 h -7.639299 z"
     id="path14"
     inkscape:connector-curvature="0"
     style="stroke-width:1.38773131" /><path
     d="M 72.252948,76.816693 H 61.838187 c -0.767046,0 -1.387731,0.621363 -1.387731,1.387732 v 10.414761 c 0,0.766369 0.620685,1.387731 1.387731,1.387731 h 10.414761 c 0.767047,0 1.387732,-0.621362 1.387732,-1.387731 V 78.204425 c 0,-0.766369 -0.620685,-1.387732 -1.387732,-1.387732 z m -1.387731,10.41476 h -7.639299 v -7.639298 h 7.639299 z"
     id="path16"
     inkscape:connector-curvature="0"
     style="stroke-width:1.38773131" /><path
     style="fill:#55ddff;stroke-width:0.16853711"
     d="M 18.5438,53.287054 18.130118,52.873373 V 36.708878 c 0,-16.097985 0.0014,-16.166321 0.349306,-16.608565 l 0.349307,-0.444072 h 27.02574 27.025741 l 0.349306,0.444072 c 0.347807,0.442163 0.349307,0.51273 0.349307,16.424438 0,11.352728 -0.05419,16.099293 -0.187122,16.391054 -0.102917,0.225877 -0.371933,0.494893 -0.597809,0.59781 -0.295468,0.134622 -7.905193,0.187121 -27.123551,0.187121 H 18.957482 Z M 70.882231,36.593668 V 22.183193 l -25.069894,0.04269 -25.069894,0.04269 -0.04352,14.157116 c -0.02394,7.786414 -0.0074,14.251919 0.03684,14.367788 0.06379,0.167231 5.242196,0.210672 25.113417,0.210672 h 25.033048 z"
     id="path30"
     inkscape:connector-curvature="0" /><path
     style="fill:#55ddff;stroke-width:0.16853711"
     d="M 16.444747,100.55779 C 13.918255,100.27658 12.063011,99.374755 10.199826,97.522182 8.8346583,96.164789 7.9304971,94.666779 7.3919283,92.870074 7.1109949,91.932859 7.0905239,89.721838 7.0433186,55.21757 7.0075496,29.072634 7.046791,18.149941 7.18016,17.128185 7.7132603,13.04404 10.429408,9.732767 14.338033,8.401975 L 15.68633,7.9429127 h 30.168141 30.168142 l 1.440009,0.5157105 c 0.792005,0.2836408 1.868008,0.7998003 2.391119,1.1470211 1.322153,0.8775947 2.800109,2.5122977 3.529905,3.9042747 1.244148,2.37302 1.150091,-0.957759 1.150091,40.727482 0,41.577936 0.0919,38.282463 -1.136579,40.754926 -0.86725,1.745439 -2.709241,3.593095 -4.428882,4.442496 -2.627056,1.297617 0.259012,1.188657 -32.271119,1.218317 -16.036306,0.0146 -29.64989,-0.0283 -30.25241,-0.0953 z m 59.536357,-2.780871 c 1.477185,-0.384757 2.43843,-0.905082 3.517297,-1.903922 1.121456,-1.038271 2.062407,-2.740905 2.338946,-4.232282 0.246715,-1.330534 0.229952,-73.69394 -0.01735,-74.883443 -0.433697,-2.086081 -2.015884,-4.255548 -3.819459,-5.237177 -1.872511,-1.019149 -0.05795,-0.964857 -32.247995,-0.964857 -29.00999,0 -29.456876,0.005 -30.537211,0.338637 -2.252768,0.695809 -4.135158,2.444258 -5.038078,4.679595 L 9.787527,16.538305 9.737755,53.616468 c -0.036562,27.236514 0.00123,37.346571 0.1423584,38.089385 0.2985926,1.57155 0.9379356,2.741713 2.1698666,3.97142 1.1613,1.159205 2.206672,1.767998 3.62936,2.113633 0.652516,0.158524 7.636297,0.209747 30.097584,0.220755 25.29197,0.0124 29.377253,-0.01936 30.204176,-0.234742 z"
     id="path32"
     inkscape:connector-curvature="0" /><path
     style="fill:#55ddff;stroke-width:0.16853711"
     d="M 18.5438,71.489062 18.130118,71.07538 v -5.630925 c 0,-5.441458 0.01175,-5.645868 0.349306,-6.074997 l 0.349307,-0.444071 h 5.795732 c 5.745146,0 5.798732,0.0032 6.139372,0.368853 0.331799,0.356144 0.34364,0.565475 0.34364,6.074997 v 5.706143 l -0.413682,0.413682 -0.413682,0.413682 H 24.618796 18.957482 Z M 28.579418,65.32669 v -3.879459 l -3.918488,0.04524 -3.918487,0.04524 -0.0456,3.61938 c -0.02508,1.990659 -0.0085,3.716058 0.03684,3.834219 0.0635,0.165489 0.974087,0.214839 3.964084,0.214839 h 3.881643 z"
     id="path34"
     inkscape:connector-curvature="0" /><path
     style="fill:#55ddff;stroke-width:0.16853711"
     d="M 39.779475,71.489062 39.365793,71.07538 v -5.708544 -5.708544 l 0.390071,-0.366453 c 0.38471,-0.361416 0.468847,-0.366452 6.122225,-0.366452 h 5.732156 l 0.366452,0.39007 c 0.361293,0.38458 0.366453,0.47011 0.366453,6.074997 v 5.684926 l -0.413682,0.413682 -0.413682,0.413682 h -5.661315 -5.661314 z m 10.035618,-6.159265 v -3.876354 h -3.960622 -3.960622 v 3.876354 3.876353 h 3.960622 3.960622 z"
     id="path36"
     inkscape:connector-curvature="0" /><path
     style="fill:#55ddff;stroke-width:0.16853711"
     d="M 61.045539,71.553437 60.601468,71.20413 v -5.802297 c 0,-5.577582 0.01305,-5.815352 0.337074,-6.139372 0.32402,-0.32402 0.56179,-0.337074 6.139372,-0.337074 h 5.802298 l 0.349306,0.444071 c 0.337067,0.428511 0.349307,0.635499 0.349307,5.907168 0,5.885418 -0.05555,6.297793 -0.87807,6.518126 -0.212277,0.05686 -2.821625,0.104424 -5.798551,0.10569 -5.222395,0.0022 -5.428198,-0.01 -5.856665,-0.347005 z m 9.836692,-6.22364 v -3.876354 h -3.876353 -3.876354 v 3.876354 3.876353 h 3.876354 3.876353 z"
     id="path38"
     inkscape:connector-curvature="0" /><path
     style="fill:#55ddff;stroke-width:0.16853711"
     d="M 61.045539,89.586907 60.601468,89.2376 v -5.802297 c 0,-5.577582 0.01305,-5.815352 0.337074,-6.139372 0.32402,-0.32402 0.56179,-0.337074 6.139372,-0.337074 h 5.802298 l 0.355579,0.452046 c 0.348176,0.442634 0.354571,0.57102 0.307172,6.166658 l -0.04841,5.714613 -0.397879,0.32202 c -0.373848,0.302569 -0.736404,0.32202 -6.002473,0.32202 -5.414818,0 -5.61963,-0.01183 -6.048665,-0.349307 z m 9.836692,-6.22364 v -3.876354 h -3.876353 -3.876354 v 3.876354 3.876353 h 3.876354 3.876353 z"
     id="path40"
     inkscape:connector-curvature="0" /><path
     style="fill:#55ddff;stroke-width:0.16853711"
     d="M 39.779475,89.522532 39.365793,89.10885 v -5.708544 -5.708544 l 0.390071,-0.366453 c 0.38471,-0.361416 0.468847,-0.366452 6.122225,-0.366452 h 5.732156 l 0.366452,0.390071 c 0.361293,0.384579 0.366453,0.470109 0.366453,6.074996 v 5.684926 l -0.413682,0.413682 -0.413682,0.413682 h -5.661315 -5.661314 z m 10.035618,-6.159265 v -3.876354 h -3.960622 -3.960622 v 3.876354 3.876353 h 3.960622 3.960622 z"
     id="path42"
     inkscape:connector-curvature="0" /><path
     style="fill:#55ddff;stroke-width:0.16853711"
     d="M 18.5438,89.522532 18.130118,89.10885 v -5.630925 c 0,-5.441457 0.01175,-5.645867 0.349306,-6.074997 l 0.349307,-0.444071 h 5.772919 5.772919 l 0.366453,0.390071 c 0.361293,0.384579 0.366453,0.470109 0.366453,6.074996 v 5.684926 l -0.413682,0.413682 -0.413682,0.413682 H 24.618796 18.957482 Z M 28.579418,83.36016 v -3.879459 l -3.918488,0.04524 -3.918487,0.04524 -0.0456,3.61938 c -0.02508,1.990659 -0.0085,3.716058 0.03684,3.834219 0.0635,0.165489 0.974087,0.214839 3.964084,0.214839 h 3.881643 z"
     id="path44"
     inkscape:connector-curvature="0" /></svg>